<svg xmlns="http://www.w3.org/2000/svg" id="Outlines" viewBox="0 0 967 206"><defs><style>.cls-1,.cls-2{fill:#000;stroke-width:0}.cls-2{fill:#ff000d}</style></defs><path d="M53.69 117.26c0-13 10.35-16.91 22.54-18.52 11.04-1.38 14.95-2.53 14.95-6.56 0-3.79-2.42-6.33-8.05-6.33-5.98 0-8.97 2.65-9.55 7.59H56.33c.46-10.93 8.86-20.24 26.68-20.24 8.86 0 14.84 1.61 19.09 4.83 5.06 3.68 7.48 9.43 7.48 16.79v29.67c0 4.71.46 7.36 2.07 8.4v.8H93.48c-.92-1.27-1.5-3.56-1.96-6.55h-.23c-3.45 4.95-8.63 8.05-17.48 8.05-11.73 0-20.13-6.33-20.13-17.94Zm37.95-4.6v-7.02c-2.42 1.27-5.87 2.19-9.66 3.11-7.25 1.61-10.24 3.45-10.24 7.93 0 4.72 3.45 6.56 8.05 6.56 7.02 0 11.85-4.26 11.85-10.58ZM118.66 51.48h18.75v15.18h-18.75V51.48Zm0 23.35h18.75v58.88h-18.75V74.83ZM146.38 74.83h17.94v8.4h.34c3.68-6.1 9.32-10.12 17.83-10.12 7.71 0 13.57 4.03 16.56 10.35h.23c4.6-7.13 10.93-10.35 18.52-10.35 13.34 0 20.01 9.09 20.01 22.31v38.3h-18.75V98.76c0-6.33-2.65-10.01-8.28-10.01-5.98 0-9.32 4.95-9.32 11.96v33.01h-18.75V98.76c0-6.33-2.65-10.01-8.28-10.01s-9.32 4.95-9.32 11.96v33.01h-18.75V74.84Z" class="cls-2"/><path d="M249.76 118.18V86.55h-7.82V74.82h7.82V56.19h18.29v18.63h10.7v11.73h-10.7v27.6c0 4.6 2.53 5.75 6.56 5.75 1.61 0 3.45-.12 4.14-.12v13.69c-1.61.46-5.18.92-10.24.92-10.93 0-18.75-3.56-18.75-16.21ZM282.31 104.15c0-17.6 12.31-31.05 30.25-31.05 8.4 0 15.07 2.76 20.13 7.36 7.02 6.44 10.47 16.68 10.35 28.64h-42.32c1.15 7.94 5.52 12.88 13.23 12.88 4.94 0 8.17-2.19 9.78-5.87h18.29c-1.27 5.29-4.72 10.35-9.89 13.92-4.95 3.45-10.93 5.4-18.4 5.4-19.44 0-31.4-13.46-31.4-31.28Zm41.75-6.21c-.69-7.02-5.06-11.5-11.16-11.5-7.13 0-10.81 4.48-12.08 11.5h23.23ZM346.71 104.38c0-17.71 12.19-31.17 30.82-31.17 15.99 0 26.22 9.32 27.95 22.54h-18.06c-1.15-5.29-4.37-8.74-9.66-8.74-8.05 0-12.08 6.67-12.08 17.37s4.03 17.14 12.08 17.14c5.87 0 9.43-3.45 10.24-10.12h17.94c-.46 13.57-11.27 24.15-27.95 24.15-18.98 0-31.28-13.46-31.28-31.17ZM411.91 51.48h18.75v30.59h.34c4.25-5.64 9.32-8.97 17.48-8.97 12.88 0 20.47 9.2 20.47 22.31v38.3H450.2v-34.5c0-6.21-3.11-10.47-9.2-10.47s-10.35 5.18-10.35 12.42v32.55H411.9V51.48ZM477.46 74.83h18.06v8.05h.34c4.37-6.33 10.01-9.78 18.17-9.78 12.88 0 20.47 9.2 20.47 22.31v38.3h-18.75v-34.5c0-6.21-3.11-10.47-9.2-10.47s-10.35 5.18-10.35 12.42v32.55h-18.75V74.83ZM540.36 104.38c0-17.71 12.65-31.17 31.51-31.17s31.4 13.46 31.4 31.17-12.42 31.17-31.4 31.17-31.51-13.46-31.51-31.17Zm43.94 0c0-10.7-4.37-17.94-12.54-17.94s-12.42 7.25-12.42 17.94 4.25 17.83 12.42 17.83 12.54-7.13 12.54-17.83ZM609.71 51.48h18.98v82.23h-18.98V51.48ZM635.12 104.38c0-17.71 12.65-31.17 31.51-31.17s31.4 13.46 31.4 31.17-12.42 31.17-31.4 31.17-31.51-13.46-31.51-31.17Zm43.94 0c0-10.7-4.37-17.94-12.54-17.94s-12.42 7.25-12.42 17.94 4.25 17.83 12.42 17.83 12.54-7.13 12.54-17.83ZM702.97 135.09h18.17c1.04 3.11 4.14 5.75 10.35 5.75 7.93 0 11.27-4.14 11.27-11.27v-5.87h-.46c-3.45 3.91-7.94 6.79-15.07 6.79-13.23 0-25.53-9.89-25.53-27.95s10.12-29.44 24.73-29.44c7.82 0 13.11 3.1 16.56 8.05h.23v-6.33h17.94v53.13c0 8.86-3.11 15.29-7.82 19.55-5.17 4.6-12.88 6.55-21.62 6.55-16.22 0-26.91-6.67-28.75-18.98Zm40.6-33.24c0-7.94-4.14-14.61-11.96-14.61-7.01 0-11.62 5.75-11.62 14.72s4.6 14.61 11.62 14.61c8.17 0 11.96-6.44 11.96-14.72ZM770.13 51.48h18.75v15.18h-18.75V51.48Zm0 23.35h18.75v58.88h-18.75V74.83ZM795.2 104.15c0-17.6 12.31-31.05 30.25-31.05 8.39 0 15.07 2.76 20.13 7.36 7.01 6.44 10.46 16.68 10.35 28.64h-42.32c1.15 7.94 5.52 12.88 13.23 12.88 4.95 0 8.17-2.19 9.78-5.87h18.29c-1.27 5.29-4.72 10.35-9.89 13.92-4.95 3.45-10.93 5.4-18.4 5.4-19.44 0-31.4-13.46-31.4-31.28Zm41.75-6.21c-.69-7.02-5.06-11.5-11.16-11.5-7.13 0-10.81 4.48-12.08 11.5h23.23ZM858.68 114.62h17.71c.69 5.87 4.6 8.74 10.81 8.74 5.64 0 9.2-2.07 9.2-5.87 0-5.29-7.13-5.87-14.95-7.25-10.24-1.73-21.16-4.49-21.16-18.29 0-12.42 11.5-18.86 25.42-18.86 16.68 0 25.65 7.25 26.57 18.86h-17.25c-.69-5.29-4.25-6.9-9.43-6.9-4.6 0-8.17 1.73-8.17 5.41 0 4.14 6.67 4.72 14.15 6.1 10.35 1.73 22.54 4.37 22.54 19.44 0 12.88-11.39 19.55-26.8 19.55-17.25 0-28.06-7.94-28.64-20.93Z" class="cls-1"/></svg>